# xmcd
#
# Track frame offsets: 
#        150
#        16210
#        33767
#        58864
#        79714
#        102064
#        118725
#        136094
#        149294
#        177719
#        196134
#        217434
#        231609
#        248942
#        272342
#        292065
#        309840
#        326790
#
# Disc length: 4584 seconds
#
# Revision: 0
# Processed by: cddbd v1.5.2PL0 Copyright (c) Steve Scherf et al.
# Submitted via: ExactAudioCopy v1.3
#
DISCID=0f11e612
DTITLE=Maggie Bell - Voice Through The Years
DYEAR=2009
DGENRE=Blues Rock
TTITLE0=Wishing Well
TTITLE1=A Woman Left Lonely
TTITLE2=Souvenir
TTITLE3=Faces
TTITLE4=Don't Think Twice
TTITLE5=Suicide Sal
TTITLE6=Blind Man
TTITLE7=We Had It All
TTITLE8=Danger Zone
TTITLE9=Comin' On Strong
TTITLE10=Hold On
TTITLE11=In My Life
TTITLE12=If You Don't Know
TTITLE13=Trade Winds
TTITLE14=As The Years Go Passing By
TTITLE15=Queen Of The Night
TTITLE16=Crimes Of The Heart
TTITLE17=Tonight
EXTD=
EXTT0=
EXTT1=
EXTT2=
EXTT3=
EXTT4=
EXTT5=
EXTT6=
EXTT7=
EXTT8=
EXTT9=
EXTT10=
EXTT11=
EXTT12=
EXTT13=
EXTT14=
EXTT15=
EXTT16=
EXTT17=
PLAYORDER=
